<?xml version="1.0" standalone="no"?>
<!DOCTYPE svg PUBLIC "-//W3C//DTD SVG 20010904//EN"
 "http://www.w3.org/TR/2001/REC-SVG-20010904/DTD/svg10.dtd">
<svg version="1.0" xmlns="http://www.w3.org/2000/svg"
 width="300.000000pt" height="236.000000pt" viewBox="0 0 300.000000 236.000000"
 preserveAspectRatio="xMidYMid meet">
<metadata>
Created by potrace 1.10, written by Peter Selinger 2001-2011
</metadata>
<g transform="translate(0.000000,236.000000) scale(0.100000,-0.100000)"
fill="#000000" stroke="none">
<path d="M1385 2203 c-108 -9 -340 -84 -401 -129 -16 -12 -46 -29 -65 -38 -39
-18 -106 -57 -164 -95 -22 -14 -53 -33 -69 -41 -34 -17 -86 -94 -86 -126 0
-13 -5 -35 -11 -51 -21 -55 -75 -253 -84 -310 -3 -18 -9 -43 -15 -57 -5 -15
-7 -26 -4 -26 4 0 1 -7 -6 -15 -7 -9 -29 -15 -54 -15 -38 0 -81 -19 -97 -43
-4 -5 -15 -4 -28 2 -17 10 -27 8 -51 -5 -27 -17 -30 -17 -48 -1 -25 23 -44 21
-70 -6 -19 -21 -22 -34 -22 -120 0 -93 1 -97 26 -114 21 -14 31 -15 56 -5 24
9 36 8 59 -4 21 -10 35 -12 47 -5 14 7 26 5 48 -10 16 -10 45 -19 65 -19 69 0
117 -30 107 -66 -5 -20 14 -116 36 -180 47 -140 109 -247 184 -320 36 -35 155
-124 166 -124 9 0 140 -85 156 -101 34 -33 125 -63 195 -66 39 -1 135 -5 215
-9 117 -5 163 -3 235 11 50 9 101 18 115 21 14 2 40 8 58 13 18 5 36 10 40 10
27 1 335 151 352 172 3 3 19 13 35 22 46 25 74 54 153 158 44 59 72 106 72
121 0 14 7 47 15 74 8 27 15 69 15 95 0 89 87 208 131 180 26 -15 54 -14 69 4
11 13 15 13 33 0 29 -20 50 -19 72 5 15 16 18 39 20 118 1 88 -1 99 -22 120
-24 24 -53 28 -70 11 -9 -9 -19 -9 -42 0 -34 14 -60 5 -85 -31 -20 -29 -29
-18 -33 40 -1 26 -11 67 -21 92 -11 25 -30 79 -42 120 -12 41 -38 118 -57 172
-19 53 -36 115 -37 139 -3 38 -10 49 -66 101 -52 49 -67 58 -83 51 -19 -9 -18
-10 10 -29 83 -53 148 -124 114 -124 -5 0 15 -69 44 -152 29 -84 61 -182 70
-218 10 -36 25 -73 32 -82 11 -12 14 -36 11 -82 -1 -36 0 -66 4 -66 17 0 37
-60 34 -101 -2 -48 -11 -69 -27 -69 -17 0 -39 -27 -39 -47 0 -11 -4 -23 -8
-29 -13 -14 -32 -88 -32 -125 0 -19 -9 -63 -20 -98 -10 -35 -17 -68 -14 -72 7
-12 -26 -60 -37 -53 -5 3 -6 10 -3 16 4 7 -2 8 -17 3 -49 -15 -67 -24 -74 -35
-3 -5 -11 -7 -17 -4 -7 4 -8 2 -4 -4 4 -7 14 -12 22 -12 21 0 17 -17 -8 -34
-27 -19 -48 -20 -71 -3 -15 10 -16 17 -6 46 8 24 14 29 20 19 7 -10 9 -10 9 2
0 16 -36 73 -81 129 -28 35 -30 73 -3 50 16 -13 109 -150 109 -161 0 -3 4 -10
9 -15 5 -4 6 -3 3 3 -4 8 7 14 31 19 20 4 41 10 47 13 5 4 14 7 20 7 13 0 36
47 30 63 -2 6 0 12 5 12 12 0 30 65 30 107 0 18 11 67 25 110 14 43 25 81 25
84 0 4 -14 9 -30 13 -36 7 -64 60 -54 101 10 39 49 75 84 75 23 0 30 4 30 19
0 11 -8 22 -17 25 -34 10 -248 56 -260 56 -9 0 -11 -13 -7 -45 l5 -45 -36 0
c-32 0 -40 -8 -36 -33 1 -5 -2 -6 -7 -3 -16 10 -62 -51 -62 -82 0 -25 3 -29
20 -25 11 3 20 0 20 -6 0 -6 -6 -11 -12 -11 -7 0 -21 -7 -32 -15 -16 -12 -17
-16 -4 -29 17 -17 54 -11 62 10 6 17 -6 18 -21 3 -8 -8 -13 -8 -17 0 -4 6 -6
11 -4 12 27 7 45 6 59 -2 26 -13 33 4 34 91 2 72 2 75 27 77 22 1 26 -4 38
-47 l13 -49 23 50 c34 72 50 65 57 -23 3 -49 1 -76 -7 -81 -6 -5 -1 -6 12 -2
16 5 22 2 22 -9 0 -13 -13 -16 -62 -17 -105 -3 -111 -4 -115 -16 -3 -7 4 -10
19 -7 21 3 20 3 -3 -8 -21 -8 -32 -29 -58 -102 -37 -108 -90 -216 -147 -300
l-41 -62 76 -28 c42 -16 93 -40 113 -52 21 -13 42 -24 47 -24 17 0 101 91 121
131 20 39 40 59 40 39 0 -23 -86 -137 -125 -166 -53 -39 -204 -129 -250 -148
-19 -8 -35 -20 -35 -26 0 -6 -4 -9 -9 -6 -5 3 -37 -7 -72 -23 -60 -27 -129
-43 -306 -71 -89 -14 -373 -4 -455 16 -57 13 -121 43 -186 87 -18 12 -72 47
-120 78 -139 89 -202 154 -260 267 -61 119 -91 211 -102 321 -5 46 -11 86 -14
88 -2 3 -38 5 -80 5 -69 -1 -75 1 -78 21 -3 20 -8 22 -60 19 l-58 -2 0 30 c0
27 -3 30 -30 30 -27 0 -30 -3 -30 -30 0 -25 -4 -30 -25 -30 l-25 0 0 105 0
105 25 0 c24 0 25 -3 25 -54 0 -53 0 -53 30 -52 28 1 30 3 30 42 0 42 20 72
40 59 6 -3 10 -44 10 -96 l0 -89 30 0 30 0 0 89 c0 77 2 90 17 94 16 4 16 5 0
6 -10 0 -17 7 -15 14 5 14 45 24 100 26 36 1 37 1 48 59 31 156 103 418 129
470 23 48 40 61 206 158 83 48 152 90 155 94 12 16 184 81 265 101 109 25 354
31 485 10 127 -20 260 -76 453 -193 92 -55 99 -58 120 -43 l21 15 -27 0 c-23
0 -66 22 -152 78 -37 24 -240 120 -286 135 -25 9 -65 18 -90 22 -24 3 -68 10
-98 15 -51 9 -217 11 -306 3z m1031 -957 c27 -8 61 -17 77 -20 34 -8 34 -19 2
-36 -22 -12 -27 -11 -45 5 -17 15 -24 16 -46 7 -34 -16 -42 -15 -54 9 -12 21
-7 49 8 49 5 0 31 -6 58 -14z m357 -89 l37 -62 -6 63 -7 62 27 0 26 0 0 -110
c0 -98 -2 -110 -17 -110 -12 0 -31 23 -53 63 -37 67 -45 63 -38 -19 3 -40 1
-44 -19 -44 -22 0 -23 3 -23 108 0 97 2 108 18 109 13 1 30 -18 55 -60z m-516
-50 c-10 -31 -37 -48 -37 -23 0 8 39 56 45 56 1 0 -3 -15 -8 -33z m199 -147
c2 0 13 6 24 12 16 10 23 10 36 -3 13 -14 14 -23 4 -58 -6 -24 -17 -78 -25
-121 -18 -100 -52 -157 -102 -166 -37 -7 -67 12 -79 50 -4 11 -20 36 -35 54
-28 32 -38 78 -21 98 5 5 15 28 22 51 19 61 42 78 101 77 36 0 48 3 45 12 -3
7 0 15 7 17 7 2 13 -2 15 -10 2 -7 5 -13 8 -13z m-185 -338 c10 -18 10 -30 1
-56 -17 -47 -16 -54 19 -86 53 -48 19 -63 -51 -22 -19 11 -55 26 -79 33 -23 7
-45 18 -48 25 -2 7 6 29 20 51 13 21 37 60 52 87 l27 48 24 -28 c12 -16 28
-39 35 -52z"/>
<path d="M1321 2159 c-25 -5 -47 -13 -50 -17 -3 -5 -24 -12 -46 -16 -44 -8
-115 -30 -142 -45 -10 -5 -27 -12 -38 -16 -16 -5 -6 -13 48 -41 l67 -34 37 41
c21 23 40 44 43 48 18 22 91 68 125 78 47 13 20 15 -44 2z m-101 -64 c0 -2
-13 -18 -30 -35 -29 -30 -45 -35 -74 -24 -28 11 -17 29 27 46 42 16 77 22 77
13z"/>
<path d="M1444 2155 c-9 -22 16 -75 35 -75 13 0 15 9 13 45 -3 37 -8 45 -23
45 -11 0 -22 -7 -25 -15z"/>
<path d="M1516 2154 c-4 -9 -4 -19 -1 -22 3 -3 6 1 6 9 1 8 4 -2 8 -21 l6 -35
67 1 c77 1 91 8 59 30 -12 9 -31 25 -43 37 -11 12 -18 16 -14 9 7 -12 -6 -12
-65 4 -9 3 -19 -3 -23 -12z m73 -25 c42 -15 41 -39 -3 -39 -33 0 -53 20 -40
41 7 11 5 11 43 -2z"/>
<path d="M1671 2130 c29 -25 54 -39 72 -40 28 0 28 1 -18 40 -28 24 -56 40
-72 40 -24 0 -24 -2 18 -40z"/>
<path d="M1381 2119 c-18 -22 -31 -42 -29 -44 2 -2 23 -1 46 2 32 4 42 9 38
20 -4 8 -6 26 -6 39 0 34 -12 30 -49 -17z"/>
<path d="M1779 2110 c33 -27 72 -65 86 -84 l26 -34 42 14 c43 15 96 49 87 57
-31 26 -248 97 -297 97 -2 0 23 -22 56 -50z m149 -32 c42 -19 44 -22 27 -34
-32 -23 -62 -17 -89 19 -42 55 -34 57 62 15z"/>
<path d="M1343 2126 c-13 -7 -31 -20 -41 -29 -10 -10 -23 -17 -29 -17 -10 0
-97 -91 -91 -95 2 -1 24 -14 51 -29 l47 -27 0 23 c0 19 -2 20 -10 8 -14 -22
-13 6 1 32 10 19 9 20 -14 14 -14 -3 -33 -9 -43 -13 -11 -4 -15 -3 -11 4 6 9
66 29 117 39 8 1 38 7 65 12 l50 10 -52 1 c-28 0 -54 -3 -57 -8 -3 -4 -16 -6
-30 -4 -13 3 -27 0 -30 -6 -4 -6 -13 -11 -19 -11 -21 1 26 30 47 30 12 0 35
18 54 40 34 41 33 47 -5 26z"/>
<path d="M1660 2073 c-8 -3 -42 -22 -75 -41 -33 -20 -61 -37 -63 -38 -2 -1 0
-24 4 -51 l6 -50 87 13 c47 6 93 14 101 17 8 3 27 8 42 11 l27 6 -40 70 c-40
68 -52 77 -89 63z m57 -62 c13 -19 23 -39 23 -45 0 -16 -53 -34 -126 -42 -57
-6 -62 -5 -69 15 -9 28 3 46 55 80 57 38 88 36 117 -8z"/>
<path d="M1759 2073 l-27 -4 36 -63 37 -63 32 20 c18 10 33 21 33 24 0 9 -72
93 -79 92 -3 -1 -18 -4 -32 -6z"/>
<path d="M1530 2043 c0 -13 3 -23 6 -23 8 0 74 40 74 45 0 2 -18 2 -40 2 -34
-2 -40 -5 -40 -24z"/>
<path d="M1438 2044 c-20 -7 -58 -16 -83 -19 -40 -6 -46 -11 -53 -39 -19 -71
9 -90 129 -91 l85 0 -7 40 c-5 22 -8 56 -9 76 0 44 -13 51 -62 33z m44 -63 c4
-24 5 -47 2 -52 -2 -4 -25 -11 -49 -15 -70 -10 -138 25 -117 62 11 20 97 53
132 51 21 -2 26 -9 32 -46z"/>
<path d="M2040 2042 c0 -5 -26 -20 -57 -32 -32 -13 -62 -26 -66 -30 -4 -4 19
-36 52 -73 32 -36 63 -73 69 -83 9 -16 16 -14 86 20 42 20 95 44 117 52 l40
17 -108 64 c-122 74 -133 79 -133 65z m78 -59 c26 -15 53 -33 60 -40 7 -7 18
-13 23 -13 28 0 0 -25 -63 -55 l-73 -35 -53 57 c-29 31 -51 62 -49 67 4 14 66
45 90 46 10 0 39 -12 65 -27z"/>
<path d="M887 1973 l-108 -66 99 -42 c55 -24 109 -48 120 -54 17 -9 23 -6 38
17 10 15 39 53 66 85 26 32 48 60 48 62 0 6 -132 65 -144 64 -6 -1 -59 -31
-119 -66z m184 16 l41 -20 -18 -27 c-29 -44 -86 -102 -101 -102 -7 0 -21 4
-31 10 -9 5 -38 18 -64 29 -27 11 -48 24 -48 29 0 13 28 34 80 61 25 13 49 28
55 32 15 14 43 10 86 -12z"/>
<path d="M2443 2020 c-39 -23 -43 -56 -13 -91 23 -29 25 -22 5 17 -21 41 -19
50 15 64 17 7 30 16 30 21 0 12 0 12 -37 -11z"/>
<path d="M2490 2030 c0 -6 12 -15 26 -20 33 -13 44 -13 44 1 0 5 -5 7 -10 4
-6 -3 -13 1 -16 10 -6 13 -8 14 -15 3 -7 -10 -9 -10 -9 0 0 6 -4 12 -10 12 -5
0 -10 -5 -10 -10z"/>
<path d="M2463 2003 c-14 -5 -17 -41 -7 -67 5 -12 10 -14 19 -6 9 8 15 8 20 0
11 -17 43 -11 59 11 14 20 12 23 -30 45 -25 13 -46 24 -47 23 -1 0 -8 -3 -14
-6z m77 -59 c0 -8 -6 -14 -13 -14 -19 0 -27 10 -20 25 6 17 33 8 33 -11z"/>
<path d="M1860 1960 c-14 -11 -31 -20 -37 -20 -7 0 -13 -1 -13 -3 0 -13 81
-182 87 -182 17 0 133 48 133 55 0 4 -26 35 -57 68 -32 34 -65 71 -73 82 -15
20 -15 20 -40 0z m70 -72 c55 -56 59 -77 19 -92 -40 -14 -54 -3 -79 58 -18 45
-20 59 -10 71 7 8 14 15 16 15 1 0 26 -23 54 -52z"/>
<path d="M1110 1898 c-38 -49 -54 -78 -52 -94 3 -18 -1 -24 -17 -24 -21 0 -37
-15 -24 -23 5 -2 2 -2 -4 -1 -7 2 -16 -8 -19 -21 -3 -14 -10 -25 -15 -25 -8 0
-79 -99 -79 -111 0 -3 21 -6 48 -5 l47 1 6 58 c9 77 44 115 139 148 62 21 70
27 89 66 12 24 21 48 21 53 0 8 -72 51 -82 49 -2 0 -28 -32 -58 -71z m110 4
c0 -24 -10 -37 -50 -61 -32 -19 -80 -29 -80 -15 0 7 71 96 84 106 15 10 46
-10 46 -30z"/>
<path d="M1760 1917 c-19 -5 -77 -17 -128 -26 l-92 -16 -4 -90 c-2 -49 -5 -96
-7 -103 -3 -8 13 -19 40 -29 44 -15 45 -14 125 20 45 19 104 43 132 53 l51 17
-40 91 c-22 50 -40 91 -41 92 -1 1 -17 -3 -36 -9z m16 -25 c16 -10 51 -82 55
-112 4 -22 -3 -27 -56 -48 -33 -12 -79 -32 -102 -43 -54 -26 -92 -33 -107 -20
-15 12 -10 168 5 187 5 7 39 15 76 19 37 4 76 11 87 15 27 11 29 11 42 2z"/>
<path d="M1248 1878 c-14 -32 -14 -39 -3 -35 7 3 30 9 49 13 51 9 53 20 9 43
l-38 19 -17 -40z"/>
<path d="M713 1869 c-42 -29 -58 -60 -51 -95 3 -17 201 -174 219 -174 5 0 9 5
9 10 0 13 45 83 88 138 l34 42 -32 11 c-17 7 -72 31 -122 55 -49 24 -92 44
-96 44 -4 -1 -26 -14 -49 -31z m167 -47 c41 -19 77 -36 79 -38 4 -3 -51 -99
-74 -128 -18 -24 -32 -18 -125 57 -53 43 -65 58 -65 82 0 22 8 35 34 52 39 27
44 26 151 -25z"/>
<path d="M2230 1874 c-30 -14 -73 -33 -95 -44 -22 -10 -48 -21 -58 -24 -10 -3
-15 -10 -12 -16 4 -6 11 -7 17 -4 6 4 8 2 5 -3 -4 -6 13 -40 37 -76 24 -36 46
-71 48 -78 3 -9 9 -9 28 1 14 7 27 16 30 19 3 3 27 17 54 31 26 14 70 46 96
72 l47 47 -31 29 c-38 35 -91 72 -103 71 -4 0 -33 -11 -63 -25z m106 -24 c45
-28 52 -55 22 -87 -29 -31 -93 -75 -137 -93 -38 -15 -39 -15 -88 69 l-26 43
24 19 c26 20 136 68 158 69 7 0 29 -9 47 -20z"/>
<path d="M1374 1864 c3 -9 6 -18 6 -20 0 -3 22 -2 49 2 41 5 52 3 70 -15 l21
-21 0 31 c0 26 -3 31 -20 26 -11 -3 -20 -1 -20 4 0 5 -25 9 -56 9 -47 0 -55
-3 -50 -16z"/>
<path d="M1283 1838 c-52 -17 -83 -41 -70 -54 2 -2 25 5 53 15 36 13 71 17
132 15 49 -1 80 1 77 7 -4 5 -33 9 -66 9 -35 0 -58 4 -54 9 11 19 -12 19 -72
-1z"/>
<path d="M1487 1803 c-3 -3 -3 -11 -1 -18 6 -15 -37 -28 -61 -19 -13 5 -13 1
4 -27 11 -19 25 -53 32 -76 6 -23 16 -40 21 -37 5 3 7 11 5 17 -2 7 2 17 10
22 7 6 16 37 19 71 5 49 4 62 -9 67 -8 3 -17 3 -20 0z"/>
<path d="M1282 1788 c-23 -5 -40 -12 -38 -16 2 -4 -31 -22 -73 -40 -93 -39
-77 -11 -207 -362 -13 -36 -29 -73 -34 -82 -9 -15 -6 -18 14 -18 13 0 26 -7
29 -14 3 -8 22 -18 41 -22 20 -3 36 -10 36 -15 0 -5 7 -6 15 -2 18 6 14 29 -4
25 -17 -4 4 34 30 51 13 10 16 16 8 19 -23 8 2 28 27 22 14 -4 24 -2 24 5 0
15 -47 14 -59 -1 -52 -66 -67 -78 -88 -72 -33 9 -30 36 27 191 71 194 80 213
111 229 38 19 56 18 86 -6 55 -43 130 -8 120 56 -4 21 -2 34 5 34 16 0 58 -51
65 -79 8 -33 -30 -66 -87 -75 -47 -7 -100 -52 -100 -84 0 -33 61 -72 84 -54
43 34 121 34 111 1 -13 -40 -127 -194 -158 -213 -17 -12 -39 -30 -49 -41 -19
-23 -16 -25 -57 40 -22 37 -31 44 -31 29 0 -12 8 -32 18 -45 28 -39 56 -93 43
-85 -7 5 -11 -5 -12 -31 0 -30 -2 -34 -9 -18 -7 17 -9 17 -9 3 -1 -10 -6 -18
-12 -18 -7 0 -8 7 -4 18 16 37 16 49 1 61 -8 7 -21 14 -28 15 -7 1 -19 5 -25
9 -16 10 -5 -24 11 -35 13 -9 16 -37 5 -44 -13 -8 -10 -56 5 -76 14 -20 46
-24 46 -8 0 6 6 10 13 9 23 -4 68 23 58 35 -15 18 -32 68 -22 61 11 -6 26 13
27 35 1 8 2 22 3 31 0 9 17 23 36 31 28 11 52 39 115 133 44 65 80 129 80 142
0 12 5 22 11 20 6 -1 14 4 16 11 4 9 -1 10 -19 3 -12 -5 -56 -17 -95 -27 -40
-10 -73 -22 -73 -26 0 -10 -42 10 -51 25 -12 17 3 49 20 42 8 -3 12 -3 8 1
-10 10 49 34 83 34 15 0 33 7 40 15 13 16 45 21 35 6 -3 -5 -1 -12 5 -16 14
-9 13 4 -10 70 -26 74 -64 125 -93 124 -12 -1 -41 -5 -65 -11z m32 -44 c19
-19 20 -28 4 -41 -27 -21 -59 -22 -79 -2 -29 29 -24 47 14 52 17 2 35 5 39 5
4 1 14 -5 22 -14z m-94 -665 c0 -5 -10 -9 -22 -9 -12 0 -30 -7 -40 -17 -14
-13 -18 -13 -18 -2 0 8 15 21 33 30 32 16 47 16 47 -2z"/>
<path d="M1400 1790 c20 -13 57 -13 65 0 4 6 -11 10 -37 10 -31 0 -39 -3 -28
-10z"/>
<path d="M1120 1780 c-8 -5 -11 -12 -8 -16 4 -4 3 -15 -3 -25 -13 -25 -2 -24
19 1 10 11 28 22 42 24 14 3 27 5 30 5 3 1 -2 6 -10 11 -19 12 -51 12 -70 0z"/>
<path d="M1970 1764 c-30 -13 -59 -25 -63 -26 -5 -2 3 -33 17 -68 14 -36 30
-84 36 -106 l10 -41 95 40 c52 22 95 45 95 50 0 18 -110 177 -122 176 -7 -1
-38 -12 -68 -25z m115 -69 c47 -66 45 -81 -12 -106 -79 -34 -83 -32 -109 41
-13 36 -24 73 -24 82 0 19 77 49 98 39 7 -4 28 -29 47 -56z"/>
<path d="M617 1693 c-53 -177 -105 -400 -95 -408 2 -1 57 -5 123 -9 l121 -6
17 57 c10 32 34 103 54 158 l35 99 -23 16 c-78 52 -185 138 -195 158 -10 20
-14 13 -37 -65z m133 -49 c49 -36 90 -68 90 -71 0 -11 -82 -247 -92 -266 -8
-16 -19 -18 -95 -13 -47 3 -90 9 -95 14 -20 20 72 402 97 402 2 0 45 -30 95
-66z"/>
<path d="M2400 1750 c-19 -27 -188 -140 -209 -140 -4 0 12 -42 36 -92 25 -51
52 -120 61 -154 l16 -60 120 -28 c67 -16 131 -30 142 -33 31 -7 37 22 15 71
-10 22 -47 128 -81 234 -34 105 -66 192 -70 192 -5 0 -6 9 -3 20 8 28 -2 25
-27 -10z m12 -43 c17 -14 67 -147 123 -331 l33 -108 -47 6 c-61 9 -67 10 -133
25 l-56 14 -23 61 c-13 34 -24 63 -24 66 -3 8 -17 42 -36 87 -11 23 -19 48
-19 56 0 22 134 122 151 112 5 -3 6 1 3 9 -7 19 5 20 28 3z"/>
<path d="M1049 1729 c-18 -19 -29 -43 -30 -63 -3 -55 -7 -80 -23 -136 -28 -98
-15 -78 19 30 22 67 31 108 25 114 -14 14 -12 28 3 23 9 -3 57 46 57 60 0 12
-27 -2 -51 -28z"/>
<path d="M1804 1701 c-39 -15 -104 -43 -144 -62 -57 -26 -68 -35 -54 -40 11
-4 25 -8 33 -8 11 -1 11 2 0 16 -13 17 -12 17 11 2 21 -13 103 -124 113 -152
1 -5 18 -2 36 8 19 9 57 23 85 31 28 8 57 17 63 19 9 3 2 34 -24 110 -21 58
-40 105 -43 104 -3 0 -37 -13 -76 -28z m92 -66 c27 -62 30 -90 12 -102 -28
-17 -113 -43 -128 -38 -8 3 -32 33 -52 65 l-37 60 24 16 c30 19 114 52 138 53
13 1 25 -16 43 -54z"/>
<path d="M1509 1631 c-20 -17 -22 -22 -10 -33 12 -11 13 -11 6 1 -6 11 -4 13
8 8 19 -7 77 11 77 24 0 5 -6 9 -14 9 -8 0 -21 2 -29 5 -7 3 -25 -3 -38 -14z"/>
<path d="M1359 1581 c20 -13 -4 -24 -35 -17 -14 4 -24 2 -24 -4 0 -5 5 -10 11
-10 6 0 8 -7 5 -16 -5 -12 -2 -15 10 -10 9 3 27 9 40 12 27 7 33 39 8 48 -23
9 -31 7 -15 -3z"/>
<path d="M1420 1579 c0 -5 4 -8 10 -4 5 3 17 1 27 -6 14 -8 27 -7 53 4 l35 15
-30 -1 c-16 -1 -33 -6 -37 -12 -5 -6 -12 -5 -20 3 -15 15 -38 16 -38 1z"/>
<path d="M1575 1579 c50 -31 114 -126 115 -171 0 -24 12 -22 39 6 22 23 22 25
6 57 -30 60 -63 96 -92 102 -15 3 -41 9 -58 12 -27 6 -28 5 -10 -6z"/>
<path d="M2144 1575 c-4 -9 -11 -14 -18 -13 -6 1 -43 -10 -82 -25 l-71 -28 13
-67 c7 -37 15 -87 19 -112 l5 -45 97 2 c53 2 98 5 101 7 9 10 -84 27 -125 23
-56 -5 -64 8 -66 111 l-2 76 65 23 c36 12 70 23 77 23 22 0 110 -208 99 -236
-4 -9 2 -14 15 -14 15 0 19 5 15 16 -3 9 -9 28 -12 42 -4 15 -27 73 -51 130
-44 98 -66 122 -79 87z"/>
<path d="M879 1553 c-6 -16 -30 -85 -54 -155 -38 -110 -42 -128 -27 -128 9 0
35 -3 57 -6 27 -4 36 -3 26 4 -11 8 -11 11 1 18 22 13 67 149 83 252 l7 42
-41 0 c-36 0 -43 -4 -52 -27z m36 -89 c-20 -84 -62 -181 -79 -181 -7 0 -13 7
-13 16 -1 21 66 222 80 239 22 27 27 -7 12 -74z"/>
<path d="M1523 1558 c-28 -44 -36 -71 -39 -135 -1 -40 -8 -89 -13 -110 -6 -20
-9 -38 -8 -39 7 -8 71 14 75 25 3 9 -2 11 -17 6 -21 -6 -22 -5 -15 62 6 61 10
71 42 101 19 17 38 32 43 32 16 0 59 -75 59 -103 0 -57 -55 -114 -89 -92 -6 3
-11 0 -11 -8 0 -7 15 -21 34 -30 l35 -16 30 54 c37 66 38 85 6 150 -28 59 -40
74 -77 98 -32 20 -44 21 -55 5z m47 -29 c0 -18 -1 -19 -25 -3 -14 9 -25 17
-25 19 0 1 11 3 25 3 18 0 25 -6 25 -19z m-44 -35 c-7 -17 6 -18 23 -1 11 10
13 9 9 -3 -3 -8 -14 -16 -26 -18 -18 -3 -22 2 -22 23 0 16 4 24 11 20 6 -4 8
-13 5 -21z"/>
<path d="M1857 1471 c-43 -16 -80 -30 -82 -33 -6 -5 59 -164 75 -182 5 -7 21
-11 35 -8 14 2 25 0 26 -4 3 -46 8 -76 12 -81 3 -2 15 13 27 36 21 41 42 56
34 23 -3 -10 7 -28 25 -46 27 -26 29 -26 24 -7 -3 12 -9 24 -14 27 -5 3 -9 12
-9 20 0 27 -22 40 -59 36 -42 -5 -36 8 9 17 17 3 31 8 32 11 1 8 -23 184 -28
203 -7 22 -14 21 -107 -12z m91 -40 c16 -52 15 -126 -2 -140 -17 -14 -70 -4
-90 18 -9 9 -22 37 -31 61 -12 35 -13 46 -3 56 11 10 90 42 109 44 3 0 11 -17
17 -39z"/>
<path d="M1398 1355 l-66 -100 27 -22 c14 -12 33 -22 42 -23 9 0 22 -7 29 -15
10 -12 7 -13 -19 -5 -17 4 -34 11 -39 14 -12 7 -24 -52 -14 -69 4 -8 24 -25
44 -38 27 -19 38 -22 41 -12 3 7 1 17 -5 23 -13 13 9 75 23 67 7 -5 5 23 -7
75 l-6 25 -26 -30 c-15 -18 -23 -22 -19 -11 6 14 4 17 -8 12 -8 -3 -15 -1 -15
4 0 6 9 10 19 10 10 0 22 7 25 16 3 8 10 13 15 10 10 -7 35 123 29 151 -3 12
-25 -13 -70 -82z m28 -43 c-4 -11 -13 -23 -21 -26 -10 -3 -12 0 -8 12 15 41
41 54 29 14z"/>
<path d="M1727 1392 c-27 -28 -27 -29 -12 -71 17 -50 19 -73 4 -51 -9 13 -10
13 -6 0 2 -8 11 -14 20 -14 10 1 31 2 48 3 29 1 31 3 26 29 -3 16 -16 52 -29
81 l-23 52 -28 -29z m42 -79 c1 -18 -18 -16 -25 2 -4 8 -3 23 1 33 7 16 8 15
15 -3 5 -11 9 -26 9 -32z"/>
<path d="M1662 1295 c-12 -25 -22 -47 -22 -48 0 -1 16 -3 35 -5 34 -2 35 -1
29 25 -20 80 -18 78 -42 28z"/>
<path d="M2256 1265 c-20 -30 -36 -32 -36 -5 0 11 -4 20 -8 20 -17 0 -21 -12
-10 -30 17 -27 2 -66 -31 -80 -30 -12 -31 -16 -33 -77 -1 -33 -28 -50 -28 -18
0 8 -7 15 -15 15 -18 0 -18 -1 -5 -35 8 -22 15 -26 42 -23 25 2 34 8 36 26 2
15 -2 22 -14 22 -12 0 -2 16 34 54 28 30 54 66 58 80 7 31 20 34 27 6 6 -23
27 -27 27 -6 0 28 -13 76 -20 76 -4 0 -15 -11 -24 -25z"/>
<path d="M433 1263 c-29 -4 -33 -8 -33 -34 0 -24 4 -29 23 -28 21 0 21 1 2 9
-11 5 -14 9 -7 9 7 1 23 -4 34 -10 23 -13 33 -5 42 34 7 29 9 28 -61 20z"/>
<path d="M512 1246 c3 -14 1 -26 -3 -26 -5 0 -9 -24 -9 -53 0 -30 -6 -62 -15
-74 -12 -18 -13 -23 -1 -32 12 -10 14 -9 11 6 -4 25 15 48 26 31 12 -19 20 -4
20 33 0 19 5 52 11 75 10 37 15 41 45 42 36 1 42 -8 18 -28 -12 -10 -18 -10
-30 0 -13 10 -15 9 -16 -11 0 -13 -1 -43 -2 -66 -2 -35 0 -40 14 -33 9 5 22
17 30 27 13 16 12 17 -3 4 -16 -12 -18 -11 -18 3 0 9 7 16 16 16 10 0 14 6 10
15 -4 11 1 15 18 15 14 0 26 5 28 11 2 6 17 12 34 13 17 2 36 6 42 10 16 10
15 33 0 33 -7 0 -62 3 -122 7 l-109 8 5 -26z"/>
<path d="M1097 1250 c-3 -11 1 -27 10 -35 19 -20 24 -19 17 3 -5 14 -3 14 10
-2 12 -15 16 -16 16 -5 0 9 -11 26 -24 38 -23 22 -23 22 -29 1z"/>
<path d="M1491 1261 c-21 -6 -22 -8 -7 -20 9 -7 16 -25 16 -40 1 -25 1 -25 15
-7 15 20 21 77 8 75 -5 -1 -19 -4 -32 -8z"/>
<path d="M2033 1263 c-7 -2 -13 -13 -13 -24 0 -15 7 -19 38 -19 20 1 56 5 80
9 23 5 42 5 42 1 0 -13 -42 -22 -92 -20 -50 2 -54 -3 -39 -43 8 -20 15 -24 38
-19 47 9 103 52 103 79 0 13 -7 26 -15 29 -15 6 -66 -4 -110 -21 -16 -7 -15
-4 5 13 l25 21 -25 0 c-14 0 -31 -3 -37 -6z"/>
<path d="M766 1235 c-11 -29 -7 -52 14 -78 11 -14 23 -46 26 -71 4 -25 10 -46
14 -46 23 0 56 89 62 165 l3 40 -56 3 c-45 2 -58 0 -63 -13z m72 -50 c3 -36 2
-38 -12 -25 -8 8 -18 28 -22 43 -6 25 -4 28 12 25 14 -2 20 -13 22 -43z"/>
<path d="M1759 1223 c-7 -12 -15 -20 -19 -18 -5 3 -14 -15 -21 -39 -7 -25 -17
-42 -23 -39 -5 4 -6 1 -1 -7 6 -10 11 -9 22 5 12 17 13 17 13 2 0 -24 46 -22
88 3 17 11 32 17 32 14 0 -9 -23 -30 -48 -43 -33 -18 -29 -43 6 -35 61 15 83
69 38 93 -19 10 -23 20 -20 49 2 35 0 37 -27 37 -19 0 -32 -7 -40 -22z m36
-54 c0 -7 -8 -15 -17 -17 -18 -3 -25 18 -11 32 10 10 28 1 28 -15z"/>
<path d="M1302 1216 c-11 -14 -27 -26 -36 -26 -9 0 -16 -4 -16 -10 0 -13 10
-12 40 5 26 15 66 21 43 7 -8 -5 -9 -13 -3 -22 7 -11 10 -7 16 14 4 19 2 32
-8 43 -14 13 -18 12 -36 -11z"/>
<path d="M1615 1208 c-15 -22 -14 -23 11 -32 19 -6 29 -5 36 5 8 11 9 10 4 -3
-3 -10 -1 -20 4 -23 5 -3 8 13 7 35 -1 34 -4 40 -24 40 -12 0 -29 -10 -38 -22z"/>
<path d="M1540 1200 c-6 -12 -10 -28 -9 -38 1 -9 -3 -30 -9 -45 -16 -38 -15
-57 2 -57 8 0 21 -3 30 -6 9 -3 16 -1 16 6 0 6 -4 8 -10 5 -5 -3 -10 1 -10 10
0 9 5 13 10 10 17 -11 11 17 -7 30 -9 7 -13 17 -9 23 4 8 13 5 26 -8 11 -11
25 -20 30 -20 17 0 11 18 -12 37 -16 12 -22 26 -20 46 4 32 -13 36 -28 7z"/>
<path d="M924 1196 c-8 -20 -1 -47 11 -47 12 1 16 61 4 61 -6 0 -12 -6 -15
-14z"/>
<path d="M1960 1193 c0 -6 -12 -23 -27 -38 l-28 -28 28 5 c18 4 27 2 24 -6 -2
-6 5 -19 15 -29 18 -17 18 -17 12 8 -3 14 -2 25 4 25 15 0 21 -37 8 -50 -8 -9
-5 -16 14 -31 14 -11 36 -30 49 -41 20 -17 23 -18 18 -3 -4 9 -7 25 -7 35 0
10 -6 25 -12 32 -7 7 -14 24 -16 37 -1 14 -4 25 -5 25 -1 1 -19 17 -40 35 -20
19 -37 30 -37 24z"/>
<path d="M399 1140 c-2 -69 -2 -76 1 -107 2 -21 5 -16 9 17 5 40 9 45 34 48
15 2 27 7 27 11 0 5 -12 7 -27 4 -23 -3 -25 -2 -8 6 20 8 20 8 0 14 -16 5 -16
6 5 5 44 -1 47 1 42 27 -4 22 -10 25 -43 25 l-39 0 -1 -50z"/>
<path d="M892 1135 c-8 -32 -21 -69 -29 -82 -9 -13 -11 -23 -5 -23 6 0 13 9
17 19 3 11 15 23 26 26 10 4 19 13 19 21 0 8 4 13 9 10 12 -8 34 20 28 36 -3
8 -9 3 -15 -12 -6 -14 -11 -21 -11 -17 -1 4 -11 2 -23 -4 -21 -11 -22 -11 -10
4 7 9 12 30 10 48 -3 29 -5 26 -16 -26z"/>
<path d="M982 1178 c-7 -7 -12 -27 -12 -45 0 -18 -4 -33 -10 -33 -5 0 -10 -5
-10 -10 0 -7 6 -7 19 -1 14 8 22 7 32 -6 12 -15 12 -16 -4 -10 -13 5 -17 3
-15 -5 4 -12 14 -13 48 -9 6 0 10 12 10 26 0 14 5 25 10 25 6 0 10 7 10 15 0
8 -9 15 -20 15 -11 0 -20 5 -20 10 0 6 -3 9 -7 9 -27 -4 -35 1 -23 16 15 18 9
20 -8 3z"/>
<path d="M1590 1165 c0 -4 10 -16 23 -27 15 -13 18 -21 9 -24 -6 -3 -10 -10
-7 -15 4 -5 0 -6 -8 -3 -8 3 -17 -2 -21 -11 -6 -17 13 -29 40 -23 21 4 33 68
13 68 -8 0 -9 4 0 13 8 10 7 14 -2 14 -6 0 -20 4 -29 8 -10 4 -18 4 -18 0z"/>
<path d="M627 1130 c-14 -16 -30 -30 -36 -30 -6 0 -11 -4 -11 -10 0 -5 7 -6
17 -3 10 4 14 3 9 -5 -4 -6 -22 -9 -43 -6 -37 4 -53 -6 -52 -36 0 -8 5 -4 12
10 l11 25 4 -32 c2 -18 7 -33 11 -33 5 0 6 12 3 28 -4 26 -4 26 12 7 14 -18
15 -18 16 -2 0 12 8 17 30 17 26 0 29 3 25 28 -5 41 6 54 29 36 11 -8 15 -14
8 -14 -26 0 2 -29 44 -45 35 -13 44 -21 39 -35 -3 -10 -2 -21 3 -24 6 -3 12 8
14 25 4 28 1 33 -27 45 -34 14 -51 30 -57 54 -3 15 -17 30 -30 30 -3 0 -18
-13 -31 -30z"/>
<path d="M1459 1155 c-9 -9 5 -60 17 -60 5 0 10 11 12 25 2 19 0 21 -7 11 -7
-11 -10 -10 -13 8 -1 13 -6 20 -9 16z"/>
<path d="M1227 1135 c-9 -21 9 -28 26 -11 8 8 17 12 21 9 3 -4 6 -1 6 5 0 17
-47 15 -53 -3z"/>
<path d="M1305 1131 c-3 -6 0 -13 7 -18 7 -4 13 -15 13 -23 0 -8 6 -14 13 -12
6 1 12 -6 12 -16 0 -23 35 -56 49 -47 17 10 13 19 -31 74 -42 52 -52 58 -63
42z"/>
<path d="M2540 1121 c-17 -32 -12 -79 9 -91 30 -15 32 -13 25 24 -5 29 -3 35
14 38 16 2 18 7 11 26 -10 27 -44 29 -59 3z"/>
<path d="M2311 1083 c-1 -41 2 -53 14 -53 11 0 15 11 15 38 0 26 -3 33 -9 23
-7 -11 -10 -7 -14 15 -2 18 -5 9 -6 -23z"/>
<path d="M1263 1112 c-34 -5 -28 -21 26 -79 30 -31 45 -54 38 -57 -7 -3 2 -3
18 1 41 8 42 10 13 41 -14 15 -36 43 -49 62 -18 26 -30 34 -46 32z"/>
<path d="M1877 1072 c-26 -26 -44 -52 -40 -57 5 -6 4 -7 -1 -2 -16 12 -36 8
-36 -7 0 -24 32 -28 54 -7 29 27 75 43 106 36 32 -7 94 -61 85 -75 -3 -5 -1
-10 4 -10 6 0 11 4 11 9 0 5 20 6 44 4 24 -3 46 -1 49 3 3 5 -15 9 -40 9 -34
1 -50 6 -63 23 -10 12 -21 22 -24 22 -3 0 -27 22 -54 50 l-48 49 -47 -47z"/>
<path d="M1712 1089 c5 -16 58 -25 58 -10 0 6 -6 11 -14 11 -8 0 -22 3 -32 7
-12 4 -15 2 -12 -8z"/>
<path d="M2385 1069 c-4 -18 -3 -35 4 -42 8 -8 11 0 11 31 0 50 -6 54 -15 11z"/>
<path d="M1690 1070 c0 -5 -9 -12 -20 -15 -11 -3 -20 -15 -20 -25 0 -10 -5
-22 -11 -26 -8 -4 -9 1 -4 16 5 15 3 20 -3 16 -6 -3 -13 -2 -17 4 -3 5 -11 10
-17 10 -6 0 -6 -6 2 -16 11 -12 10 -18 -3 -31 -15 -15 -16 -14 -10 7 4 17 2
21 -8 18 -26 -9 -21 -36 8 -45 26 -9 93 -1 133 14 8 3 20 5 26 4 10 -1 29 29
22 34 -38 24 -78 42 -78 35z"/>
<path d="M906 1062 c-7 -11 11 -38 20 -29 4 4 13 2 21 -4 10 -9 13 -6 13 15 0
21 -5 26 -24 26 -14 0 -27 -4 -30 -8z"/>
<path d="M420 1031 c0 -14 6 -19 20 -18 12 1 20 8 20 19 0 11 -7 18 -20 18
-13 0 -20 -7 -20 -19z"/>
<path d="M973 1038 c-2 -5 3 -8 11 -8 9 0 16 -5 16 -12 0 -9 3 -9 12 0 19 19
29 14 16 -8 -11 -17 -10 -22 2 -30 24 -16 30 -12 30 20 0 17 -5 30 -11 30 -5
0 -8 3 -6 8 3 4 -11 7 -30 7 -19 0 -37 -3 -40 -7z"/>
<path d="M1069 1033 c5 -10 9 -22 10 -28 3 -33 14 -75 18 -71 8 8 -18 116 -28
116 -6 0 -6 -6 0 -17z"/>
<path d="M1410 1046 c0 -11 59 -40 89 -43 35 -4 35 -4 16 17 -19 21 -41 28
-29 9 4 -8 -1 -9 -17 -4 -13 4 -25 12 -27 16 -4 9 -32 13 -32 5z"/>
<path d="M610 1016 c0 -23 -4 -26 -36 -26 -19 0 -33 -3 -31 -7 3 -5 8 -38 11
-75 9 -91 37 -187 86 -293 l41 -89 40 65 c22 35 62 82 88 104 59 48 65 60 46
88 -8 12 -15 29 -15 39 0 10 -5 18 -10 18 -7 0 -8 -17 -4 -46 6 -45 5 -46 -48
-97 -29 -29 -63 -65 -75 -81 l-21 -28 -30 58 c-55 108 -97 303 -70 320 8 5 9
2 5 -10 -5 -13 -3 -15 11 -8 9 4 55 5 102 2 l85 -5 17 -35 c10 -19 20 -39 22
-45 2 -5 7 -7 11 -2 5 4 -1 25 -13 46 -14 25 -19 42 -12 46 5 3 10 -3 10 -14
0 -11 5 -23 10 -26 6 -3 10 -1 10 5 0 6 4 9 9 6 5 -4 7 4 4 16 -3 16 -2 19 4
10 7 -9 12 -6 21 13 16 34 15 35 -9 35 -12 0 -17 4 -14 11 4 6 1 9 -6 8 -8 -2
-24 2 -36 9 -12 7 -24 8 -27 3 -3 -5 5 -12 18 -15 20 -5 43 -43 32 -53 -10
-10 -34 11 -29 24 5 13 2 15 -18 8 -76 -24 -159 -17 -159 15 0 10 -4 22 -10
25 -6 4 -10 -5 -10 -19z"/>
<path d="M1233 1028 c-24 -11 -33 -53 -10 -45 6 2 11 10 9 16 -1 7 2 10 8 6 5
-3 19 -1 31 6 17 9 19 13 8 20 -17 11 -18 10 -46 -3z"/>
<path d="M1280 990 c-8 -11 -20 -18 -27 -15 -7 2 -13 0 -13 -5 0 -6 6 -10 13
-10 20 0 50 25 46 39 -3 7 -10 4 -19 -9z"/>
<path d="M1919 1003 c-1 -5 -1 -12 0 -16 1 -5 -3 -6 -8 -3 -5 3 -14 -1 -21 -9
-11 -13 -6 -15 31 -15 24 0 55 -3 69 -7 25 -6 25 -6 6 15 -11 12 -31 22 -45
22 -20 0 -23 2 -11 10 13 8 12 10 -2 10 -10 0 -19 -3 -19 -7z"/>
<path d="M1146 975 c-20 -31 -21 -65 -1 -65 26 0 38 -49 19 -77 -11 -17 -14
-36 -10 -58 6 -29 3 -36 -22 -54 -16 -11 -32 -18 -36 -14 -3 3 -6 1 -6 -5 0
-16 20 -26 20 -10 1 8 6 7 14 -5 14 -18 14 -17 21 2 8 26 42 35 98 27 37 -6
46 -3 66 18 l24 25 -24 84 c-22 82 -24 85 -68 108 -25 13 -50 29 -54 36 -12
19 -23 16 -41 -12z m124 -49 c0 -7 -82 -57 -87 -53 -2 3 13 17 34 31 35 24 53
32 53 22z m18 -94 c7 -22 12 -51 12 -65 0 -23 -5 -27 -45 -33 -25 -3 -51 -4
-58 -1 -24 9 -26 43 -6 88 36 78 76 83 97 11z"/>
<path d="M1410 992 c0 -5 11 -15 25 -22 20 -10 28 -11 37 -2 9 9 8 12 -5 12
-9 0 -17 5 -17 10 0 6 -9 10 -20 10 -11 0 -20 -4 -20 -8z"/>
<path d="M1379 964 c-7 -8 -21 -13 -31 -11 -21 6 -23 -7 -7 -52 14 -40 37 -42
31 -2 -8 57 60 48 72 -10 8 -42 8 -109 -1 -109 -4 0 -22 14 -40 32 -18 18 -33
27 -33 21 0 -18 50 -72 82 -89 l30 -15 -8 93 c-4 51 -8 99 -9 106 -1 11 -56
52 -69 52 -2 0 -9 -7 -17 -16z"/>
<path d="M1040 949 c37 -23 39 -23 34 -1 -3 11 -16 17 -35 18 l-30 1 31 -18z"/>
<path d="M1494 958 c-2 -3 19 -6 46 -6 30 -1 48 3 45 9 -7 10 -84 8 -91 -3z"/>
<path d="M1691 955 c-21 -10 -66 -15 -123 -15 l-90 0 6 -47 c3 -27 8 -74 12
-105 l6 -58 37 1 c20 0 54 3 76 7 38 7 40 9 68 82 16 41 29 82 30 90 1 8 8 25
15 38 15 26 9 27 -37 7z m-21 -55 c8 -5 5 -24 -10 -64 -16 -43 -29 -60 -48
-67 -28 -11 -79 -15 -87 -8 -8 9 -18 117 -12 133 5 12 22 15 76 14 38 0 75 -4
81 -8z"/>
<path d="M1746 924 c-3 -24 -17 -70 -30 -104 -14 -33 -22 -60 -18 -60 16 0
102 37 97 41 -3 3 2 28 10 55 8 27 14 53 14 59 0 5 8 13 18 17 15 7 14 8 -5 4
-12 -2 -25 1 -30 8 -4 7 -17 15 -28 18 -19 5 -22 0 -28 -38z m18 -103 c-5 -22
-10 -29 -17 -22 -7 7 -6 18 3 36 7 14 15 23 17 22 2 -2 0 -18 -3 -36z"/>
<path d="M2225 958 c-10 -6 -45 -10 -77 -10 -46 1 -59 -2 -56 -13 5 -25 112
-147 117 -133 2 7 16 45 31 85 29 74 25 93 -15 71z m-13 -73 c-6 -33 -19 -38
-41 -16 -30 30 -26 43 12 39 26 -2 31 -7 29 -23z"/>
<path d="M886 952 c-3 -5 -2 -38 3 -73 l7 -64 6 45 c8 63 7 100 -2 100 -5 0
-11 -4 -14 -8z"/>
<path d="M1306 908 c18 -60 39 -98 55 -98 7 0 4 12 -6 27 -10 15 -23 47 -30
72 -6 24 -16 46 -23 49 -8 2 -7 -12 4 -50z"/>
<path d="M934 926 c-3 -13 -1 -34 6 -45 12 -23 33 -29 24 -8 -3 8 0 25 5 39 8
21 7 28 -5 32 -23 9 -23 8 -30 -18z"/>
<path d="M1867 943 c-3 -5 -8 -43 -11 -84 -4 -55 -2 -81 8 -95 13 -17 15 -17
54 9 24 15 42 36 44 49 2 15 11 24 25 26 26 4 63 46 63 72 0 14 -11 17 -57 19
-32 1 -72 4 -89 7 -18 3 -34 2 -37 -3z m91 -29 c12 -4 22 -11 22 -18 -1 -17
-77 -102 -85 -94 -13 13 -10 85 4 102 15 17 24 19 59 10z"/>
<path d="M991 916 c-21 -25 -9 -66 28 -95 19 -14 32 -21 29 -16 -10 17 5 33
37 40 l30 6 -27 -16 c-16 -9 -28 -20 -28 -25 0 -14 7 -13 51 7 39 17 58 51 36
65 -22 14 -32 8 -13 -7 14 -11 16 -15 5 -15 -8 0 -23 13 -33 28 -10 16 -24 29
-30 29 -6 1 -25 4 -42 8 -21 5 -34 2 -43 -9z m77 -43 c2 -8 -5 -13 -17 -13
-12 0 -21 6 -21 16 0 18 31 15 38 -3z"/>
<path d="M2066 903 c-3 -10 -8 -23 -11 -29 -3 -6 4 -14 15 -17 17 -4 20 -2 16
10 -5 13 -4 14 9 3 8 -7 12 -17 8 -24 -3 -6 -2 -8 2 -3 5 4 19 -3 32 -15 42
-40 31 -14 -17 40 -40 44 -48 50 -54 35z"/>
<path d="M850 864 c0 -31 6 -58 16 -70 8 -10 12 -13 8 -5 -4 8 -6 33 -6 55 1
23 -3 48 -8 56 -7 11 -10 1 -10 -36z"/>
<path d="M924 815 c-3 -19 -13 -39 -21 -44 -12 -6 -8 -13 18 -34 33 -26 34
-26 39 -6 5 19 7 17 21 -12 24 -50 76 -111 84 -99 8 13 55 13 55 -1 0 -5 16
-17 35 -25 40 -16 47 -29 11 -20 -16 4 -29 0 -41 -14 -23 -26 -42 -25 -50 0
-5 15 -12 19 -27 14 -16 -5 -19 -3 -14 13 8 24 -31 76 -91 120 -24 18 -43 30
-43 27 0 -13 62 -121 96 -167 21 -28 39 -45 46 -41 6 4 63 6 127 5 73 -1 112
2 106 7 -6 6 -37 24 -70 41 -72 39 -97 60 -90 78 2 8 1 11 -5 8 -5 -3 -16 8
-25 25 -9 17 -22 29 -28 27 -7 -2 -21 9 -33 24 -11 16 -23 27 -25 24 -3 -2 -5
4 -5 15 0 14 4 16 13 9 7 -6 18 -9 25 -6 8 3 1 10 -16 16 -35 14 -70 6 -46
-10 13 -8 13 -10 0 -19 -12 -7 -16 -3 -22 23 -4 18 -5 38 -3 45 2 6 0 12 -5
12 -5 0 -12 -16 -16 -35z"/>
<path d="M2030 825 c-6 -14 -14 -36 -20 -50 -5 -14 -16 -25 -24 -25 -7 0 -18
-12 -24 -27 -34 -94 -54 -154 -51 -156 41 -23 51 -27 59 -22 6 4 10 2 10 -3 0
-5 16 -13 35 -19 l34 -11 39 62 c61 95 102 172 102 190 0 9 -8 20 -17 23 -10
4 -40 19 -66 35 -59 34 -65 35 -77 3z m95 -37 c19 -13 35 -26 35 -30 0 -10
-36 -87 -64 -136 -40 -72 -68 -84 -123 -57 -28 14 -30 18 -23 48 9 43 36 94
72 137 16 19 33 41 39 48 14 17 24 15 64 -10z"/>
<path d="M1103 795 l-23 -12 23 -21 c29 -27 37 -28 37 -2 0 11 -6 20 -12 20
-10 0 -9 3 1 9 21 14 -2 19 -26 6z"/>
<path d="M1783 777 c-21 -9 -20 -11 25 -48 26 -22 57 -39 69 -39 27 0 28 -8 8
-56 -12 -28 -19 -35 -32 -29 -10 4 -43 15 -73 25 -68 21 -100 37 -100 52 0 6
17 27 38 46 20 20 29 33 19 29 -11 -4 -29 -10 -41 -13 -24 -6 -63 -72 -49 -84
15 -13 233 -81 241 -76 11 6 48 107 57 156 l7 35 -21 -22 c-38 -39 -62 -40
-96 -1 -25 30 -33 34 -52 25z"/>
<path d="M813 676 c-56 -55 -113 -138 -113 -163 0 -16 65 -83 80 -83 8 0 51
18 95 40 44 22 85 40 91 40 27 0 21 42 -13 93 -20 29 -44 71 -55 95 -10 23
-20 41 -21 41 -1 -1 -30 -29 -64 -63z m106 -63 c22 -37 37 -71 34 -75 -9 -16
-152 -80 -169 -76 -9 2 -26 15 -36 29 -20 26 -20 26 2 68 24 48 93 121 114
121 8 0 33 -30 55 -67z"/>
<path d="M1324 720 c-32 -12 -36 -25 -25 -67 6 -21 13 -50 16 -65 5 -27 35
-43 95 -50 20 -2 26 2 28 20 2 13 9 21 15 19 22 -7 47 25 40 52 -9 39 -27 55
-77 70 -25 7 -46 17 -46 22 0 11 -18 11 -46 -1z m84 -44 c42 -14 52 -22 52
-40 0 -12 -11 -33 -25 -46 -23 -21 -28 -22 -63 -12 -21 7 -39 17 -40 24 -1 7
-4 25 -8 40 -8 34 2 62 19 55 6 -2 36 -12 65 -21z"/>
<path d="M1605 720 c-16 -4 -47 -8 -69 -9 -35 -1 -38 -3 -32 -23 3 -13 6 -40
6 -61 l0 -37 37 20 c21 11 43 20 48 20 6 0 21 23 32 50 12 28 18 49 15 49 -4
-1 -20 -5 -37 -9z m-17 -46 c-5 -26 -37 -42 -47 -25 -14 22 -2 41 26 41 17 0
24 -5 21 -16z"/>
<path d="M1428 709 c12 -4 30 -5 39 -2 10 4 14 2 9 -5 -3 -6 -3 -13 2 -16 4
-2 8 4 9 14 1 14 -6 18 -40 18 -34 0 -38 -1 -19 -9z"/>
<path d="M1156 684 c-9 -23 -7 -24 49 -13 73 14 80 29 13 29 -43 0 -57 -4 -62
-16z"/>
<path d="M1228 657 c-30 -8 -38 -15 -38 -34 0 -16 7 -24 27 -29 15 -4 34 -13
41 -21 7 -7 20 -13 28 -13 12 0 14 9 8 48 -3 26 -8 50 -11 55 -5 8 -5 8 -55
-6z"/>
<path d="M1624 638 c-3 -4 -2 -8 3 -8 4 0 45 -11 91 -24 46 -13 81 -21 77 -18
-13 13 -166 58 -171 50z"/>
<path d="M1084 606 c-18 -14 -18 -16 -2 -32 15 -15 17 -15 28 6 16 29 0 45
-26 26z"/>
<path d="M1609 593 c-13 -35 -12 -37 16 -15 21 17 31 19 58 11 18 -6 57 -17
87 -25 30 -8 59 -19 64 -24 9 -9 -25 -101 -47 -128 -10 -13 -29 -11 -110 9
-32 9 -42 17 -58 55 -11 24 -17 48 -14 53 3 5 1 12 -4 15 -15 9 -24 -50 -11
-74 13 -24 4 -44 -16 -36 -7 3 -15 2 -18 -2 -2 -4 7 -9 21 -10 22 -2 162 -34
205 -48 13 -4 25 12 52 71 20 42 37 83 38 92 2 11 -29 23 -125 47 l-129 33 -9
-24z"/>
<path d="M1545 593 c-16 -9 -36 -24 -42 -34 -8 -10 -21 -16 -35 -13 -21 4 -22
4 -3 -5 11 -5 34 -10 51 -10 16 -1 34 -5 40 -11 7 -7 15 7 25 40 17 55 13 59
-36 33z"/>
<path d="M1857 458 c-20 -45 -34 -85 -30 -89 5 -4 26 -10 49 -14 39 -6 42 -4
69 32 15 21 44 54 62 74 l35 37 -66 21 c-36 11 -69 21 -73 21 -5 0 -25 -37
-46 -82z m125 34 c12 -12 -72 -112 -94 -112 -26 0 -31 21 -13 56 8 16 15 34
15 40 0 31 66 42 92 16z"/>
<path d="M1175 508 c-24 -14 -55 -18 -55 -6 0 4 -15 7 -32 7 -31 -2 -31 -2 -5
-6 15 -2 27 -8 27 -12 0 -7 43 -31 55 -31 2 0 13 14 25 30 23 32 18 37 -15 18z"/>
<path d="M1203 487 l-22 -35 34 -6 c38 -7 145 -88 125 -94 -7 -3 -17 3 -22 11
-6 12 -17 15 -41 10 -29 -6 -31 -5 -19 10 17 20 8 37 -19 37 -24 0 -48 -45
-32 -61 6 -6 32 -14 58 -17 35 -4 43 -7 31 -14 -19 -11 -22 -62 -3 -56 6 3 17
20 23 39 7 19 15 33 18 31 4 -1 14 2 24 7 11 7 12 11 4 11 -9 0 -11 7 -7 20 5
17 2 20 -24 20 -16 0 -33 5 -37 12 -5 8 2 9 23 5 26 -5 36 0 68 33 32 33 40
37 51 25 8 -7 14 -23 14 -34 0 -33 43 -38 79 -10 17 13 30 29 30 35 2 22 -26
46 -52 45 -50 -3 -62 -3 -172 4 l-110 7 -22 -35z m295 1 c7 -7 12 -26 11 -42
l-1 -31 -8 28 c-5 16 -14 35 -21 43 -14 17 2 19 19 2z m-142 -10 c12 -18 -19
-38 -60 -38 -30 0 -45 5 -53 19 -7 10 -9 22 -6 25 10 9 113 4 119 -6z"/>
<path d="M965 491 c-27 -10 -78 -32 -112 -48 l-62 -30 22 -20 c27 -25 127 -91
185 -123 23 -13 42 -27 42 -32 0 -4 5 -8 10 -8 6 0 5 8 -2 20 -16 26 1 39 38
32 23 -4 25 -2 19 24 -5 24 -4 26 5 12 6 -10 15 -18 20 -18 21 0 13 39 -17 85
-59 91 -84 125 -91 125 -4 -1 -29 -9 -57 -19z m73 -38 c7 -10 19 -26 28 -36
24 -29 33 -61 23 -80 -14 -23 -67 -50 -87 -42 -37 14 -153 98 -150 109 6 18
127 75 151 70 12 -2 28 -12 35 -21z"/>
<path d="M1082 461 c14 -15 30 -42 37 -58 10 -24 17 -29 39 -27 15 2 19 1 10
-2 -22 -7 -24 -21 -3 -21 18 0 29 30 20 58 -7 21 -50 43 -66 34 -5 -4 -6 2 -2
11 4 11 2 15 -4 11 -6 -4 -16 0 -23 8 -7 8 -17 15 -22 15 -5 0 1 -13 14 -29z"/>
<path d="M2006 432 c-24 -32 -51 -64 -60 -71 -24 -20 -20 -28 20 -47 19 -9 42
-28 51 -41 l16 -23 105 55 c159 85 154 79 91 111 -29 14 -81 37 -116 50 l-62
24 -45 -58z m134 -1 c40 -16 75 -32 78 -36 4 -3 -4 -15 -18 -26 -30 -24 -135
-79 -150 -79 -18 0 -70 43 -70 58 0 20 70 112 86 112 1 0 34 -13 74 -29z"/>
<path d="M1417 443 c-4 -3 -7 -17 -7 -29 0 -21 4 -23 33 -19 17 3 26 3 20 -1
-7 -3 -13 -13 -13 -22 0 -15 2 -14 18 1 16 17 16 19 -1 32 -11 7 -24 12 -30
11 -7 -2 -9 -1 -4 1 10 6 9 33 -1 33 -5 0 -12 -3 -15 -7z"/>
<path d="M1380 425 c-7 -8 -8 -15 -3 -15 4 0 8 -18 8 -39 0 -22 -3 -37 -7 -35
-14 9 -48 -55 -52 -100 -3 -25 -3 -46 -1 -46 5 0 28 78 31 103 2 23 14 35 14
14 0 -12 9 -17 28 -17 24 0 30 6 39 34 12 39 4 60 -20 50 -16 -6 -23 14 -18
54 2 16 -4 15 -19 -3z"/>
<path d="M1534 400 c-29 -11 -80 -80 -60 -80 9 0 16 7 16 15 0 8 5 15 11 15 6
0 8 -8 5 -18 -4 -13 0 -18 14 -19 13 -1 20 4 20 15 0 9 9 32 20 50 20 33 14
39 -26 22z"/>
<path d="M1581 388 c-14 -23 -6 -37 11 -20 16 16 29 15 95 -4 45 -13 54 -19
51 -36 -2 -12 -15 -30 -29 -40 -24 -18 -28 -18 -75 -3 -27 9 -56 20 -65 25
-19 10 -29 4 -29 -17 0 -7 11 -13 24 -13 13 0 43 -7 66 -15 24 -8 45 -13 48
-10 3 3 11 0 17 -5 14 -11 53 28 80 79 l13 27 -97 25 c-97 26 -98 26 -110 7z"/>
<path d="M1800 340 c0 -5 -16 -30 -36 -55 -19 -26 -34 -48 -32 -50 2 -1 13 -7
24 -13 19 -10 28 -5 78 44 59 58 67 73 39 75 -10 1 -30 3 -45 5 -16 1 -28 -1
-28 -6z"/>
<path d="M1207 314 c-3 -4 -4 -11 -1 -15 7 -12 54 -11 54 1 0 6 -4 10 -9 10
-5 0 -16 2 -23 5 -8 3 -17 3 -21 -1z"/>
<path d="M1854 260 l-61 -59 28 -12 c32 -13 54 -9 122 21 46 21 53 32 41 65
-5 13 -53 46 -66 45 -2 0 -30 -27 -64 -60z m95 21 c21 -14 6 -38 -37 -59 -59
-28 -70 -16 -26 29 41 42 42 43 63 30z"/>
<path d="M1143 286 c-12 -13 -19 -27 -16 -30 4 -3 1 -6 -5 -6 -7 0 -12 -4 -12
-9 0 -5 36 -9 80 -9 43 0 84 -3 89 -6 6 -4 15 2 20 13 16 29 14 32 -14 19 -28
-12 -76 3 -104 34 -17 17 -18 17 -38 -6z"/>
<path d="M1450 293 c-13 -10 -31 -18 -40 -18 -42 -4 -48 -6 -53 -25 -6 -23 -4
-24 21 -11 46 25 92 41 115 41 34 0 43 16 14 24 -30 8 -30 8 -57 -11z"/>
<path d="M1462 259 c-18 -6 -30 -14 -27 -19 7 -11 -64 -32 -78 -23 -10 6 -2
-55 8 -65 3 -3 22 1 44 8 21 7 43 10 49 6 11 -6 25 29 22 57 -1 11 6 17 20 17
19 0 20 -2 7 -27 -8 -16 -18 -38 -21 -50 -7 -22 -5 -23 44 -23 60 0 106 19
145 59 l27 29 -58 17 c-72 21 -139 26 -182 14z m170 -37 c25 -25 -48 -64 -99
-54 -19 4 -22 9 -17 31 4 14 9 30 12 35 6 11 91 1 104 -12z"/>
<path d="M1678 185 c-34 -32 -36 -35 -15 -35 12 0 40 12 61 26 29 20 35 28 25
35 -22 14 -32 10 -71 -26z"/>
<path d="M1229 208 c0 -2 -2 -15 -4 -30 l-4 -28 65 0 c41 0 63 4 59 10 -3 6
-15 10 -25 10 -11 0 -24 9 -30 20 -6 12 -21 20 -35 20 -14 0 -25 -1 -26 -2z"/>
<path d="M1746 175 c-19 -15 -19 -15 5 -15 42 0 73 12 57 21 -19 13 -40 10
-62 -6z"/>
</g>
</svg>
